<?xml version="1.0" encoding="utf-8"?>
<svg version="1.1" xmlns:xlink="http://www.w3.org/1999/xlink" width="31px" height="22px" xmlns="http://www.w3.org/2000/svg">
  <g transform="matrix(1 0 0 1 -38 -603 )">
    <path d="M 2.21428571428571 2.2  L 28.7857142857143 2.2  L 28.7857142857143 6.105  C 27.4017857142857 7.3425  26.5714285714286 9.13  26.5714285714286 11.0275  C 26.5714285714286 12.925  27.4017857142857 14.7125  28.7857142857143 15.95  L 28.7857142857143 19.8  L 2.21428571428571 19.8  L 2.21428571428571 15.9225  C 3.59821428571429 14.685  4.42857142857143 12.8975  4.42857142857143 11  C 4.42857142857143 9.1025  3.59821428571429 7.315  2.21428571428571 6.0775  L 2.21428571428571 2.2  Z M 31 1.1  C 31 0.495  30.5017857142857 0  29.8928571428571 0  L 1.10714285714286 0  C 0.498214285714286 0  0 0.495  0 1.1  L 0 7.2325  C 1.32857142857143 8.0025  2.21428571428571 9.405  2.21428571428571 11.0275  C 2.21428571428571 12.65  1.32857142857143 14.08  0 14.8225  L 0 20.9  C 0 21.505  0.498214285714286 22  1.10714285714286 22  L 29.8928571428571 22  C 30.5017857142857 22  31 21.505  31 20.9  L 31 14.8225  C 29.6714285714286 14.0525  28.7857142857143 12.65  28.7857142857143 11.0275  C 28.7857142857143 9.405  29.6714285714286 7.975  31 7.2325  L 31 1.1  Z M 16.7178571428571 8.8  L 19.9285714285714 8.8  L 19.9285714285714 11  L 16.6071428571429 11  L 16.6071428571429 13.2  L 19.9285714285714 13.2  L 19.9285714285714 15.4  L 16.6071428571429 15.4  L 16.6071428571429 18.7  L 14.3928571428571 18.7  L 14.3928571428571 15.4  L 11.0714285714286 15.4  L 11.0714285714286 13.2  L 14.3928571428571 13.2  L 14.3928571428571 11  L 11.0714285714286 11  L 11.0714285714286 8.8  L 14.3651785714286 8.8  L 10.6285714285714 5.115  L 12.20625 3.5475  L 15.5276785714286 6.8475  L 18.8214285714286 3.575  L 20.3991071428571 5.1425  L 16.7178571428571 8.8  Z " fill-rule="nonzero" fill="#1890ff" stroke="none" transform="matrix(1 0 0 1 38 603 )" />
  </g>
</svg>