<?xml version="1.0" encoding="utf-8"?>
<svg version="1.1" xmlns:xlink="http://www.w3.org/1999/xlink" width="30px" height="26px" xmlns="http://www.w3.org/2000/svg">
  <g transform="matrix(1 0 0 1 -39 -452 )">
    <path d="M 24.2301196658388 12.8384466019417  C 24.045156920298 10.2535922330097  22.9353804470535 8.63805825242718  21.6406412282682 7.18407766990291  C 21.4556784827275 7.02252427184466  21.2707157371867 6.69941747572816  21.085752991646 6.5378640776699  C 20.7158275005645 6.05320388349515  19.9759765184014 6.05320388349515  19.6060510273199 6.37631067961165  C 19.0511627906977 6.69941747572816  19.0511627906977 7.34563106796117  19.4210882817792 7.83029126213592  C 19.6060510273199 8.15339805825243  19.7910137728607 8.31495145631068  19.9759765184014 8.47650485436893  C 21.085752991646 9.76893203883495  22.0105667193497 10.8998058252427  22.0105667193497 13  C 22.0105667193497 15.1001941747573  21.085752991646 16.3926213592233  19.9759765184014 17.6850485436893  L 19.6060510273199 18.1697087378641  C 19.2361255362384 18.6543689320388  19.4210882817792 19.3005825242718  19.7910137728607 19.6236893203884  C 19.9759765184014 19.7852427184466  20.1609392639422 19.7852427184466  20.345902009483 19.7852427184466  C 20.7158275005645 19.7852427184466  21.085752991646 19.6236893203884  21.2707157371867 19.3005825242718  L 21.6406412282682 18.8159223300971  C 22.7504177015128 17.3619417475728  24.2301196658388 15.584854368932  24.2301196658388 12.8384466019417  Z M 16 1.85281553398059  C 16.4616843531271 0.560388349514566  15.5368706254233 0.0757281553398064  14.7970196432603 0.0757281553398064  C 14.0571686610973 0.0757281553398064  13.3173176789343 0.398834951456311  12.3925039512305 1.20660194174757  L 6.10377060284489 6.86097087378641  L 3.32932941973357 6.86097087378641  C 1.47970196432603 6.86097087378641  0 8.15339805825243  0 9.9304854368932  L 0 15.9079611650485  C 0 17.5234951456311  1.47970196432603 18.9774757281553  3.32932941973357 18.9774757281553  L 6.10377060284489 18.9774757281553  L 12.3925039512305 24.7933980582524  C 13.3173176789343 25.6011650485437  14.0571686610973 25.9242718446602  14.7970196432603 25.9242718446602  C 15.5368706254233 25.9242718446602  16.4616843531271 25.4396116504854  16 23.9856310679612  L 16 1.85281553398059  Z M 14.2421314066381 2.49902912621359  L 14.2421314066381 23.6625242718447  C 14.0571686610973 23.6625242718447  14.0571686610973 23.5009708737864  13.8722059155566 23.3394174757282  L 7.21354707608941 17.3619417475728  C 7.02858433054866 17.2003883495146  6.65865883946715 17.0388349514563  6.47369609392639 17.0388349514563  L 3.14436667419282 17.0388349514563  C 2.58947843757056 17.0388349514563  2.0345902009483 16.5541747572816  2.0345902009483 16.0695145631068  L 2.0345902009483 10.0920388349515  C 2.0345902009483 9.6073786407767  2.58947843757056 9.12271844660194  3.14436667419282 9.12271844660194  L 6.47369609392639 9.12271844660194  C 6.8436215850079 9.12271844660194  7.02858433054866 8.96116504854369  7.21354707608941 8.79961165048544  L 13.8722059155566 2.8221359223301  L 14.2421314066381 2.49902912621359  Z M 29.7790020320614 13.1615533980583  C 29.5940392865207 8.63805825242719  27.1895235944909 5.56854368932039  24.9699706480018 3.1452427184466  C 24.6000451569203 2.66058252427184  23.8601941747573 2.66058252427184  23.4902686836758 2.98368932038835  C 23.1203431925943 3.30679611650485  22.9353804470535 3.95300970873786  23.305305938135 4.43766990291262  C 25.5248588846241 6.69941747572816  27.5594490855724 9.44582524271845  27.5594490855724 13  C 27.5594490855724 16.7157281553398  25.5248588846241 19.3005825242718  23.305305938135 21.5623300970874  C 22.9353804470535 22.0469902912621  22.9353804470535 22.5316504854369  23.4902686836758 23.0163106796116  C 23.6752314292165 23.1778640776699  23.8601941747573 23.3394174757282  24.2301196658388 23.3394174757282  C 24.6000451569203 23.3394174757282  24.785007902461 23.1778640776699  24.9699706480018 23.0163106796116  C 27.3744863400316 20.5930097087379  29.7790020320614 17.3619417475728  29.7790020320614 13.1615533980583  Z " fill-rule="nonzero" fill="#1890ff" stroke="none" transform="matrix(1 0 0 1 39 452 )" />
  </g>
</svg>