<?xml version="1.0" encoding="utf-8"?>
<svg version="1.1" xmlns:xlink="http://www.w3.org/1999/xlink" width="31px" height="31px" xmlns="http://www.w3.org/2000/svg">
  <g transform="matrix(1 0 0 1 -38 -161 )">
    <path d="M 30.3405048076923 29.9679086538462  C 30.8211538461538 29.4090144230769  31.0260817307692 28.6675480769231  30.9105769230769 27.9409855769231  L 27.9186298076923 9.32980769230769  C 27.7211538461539 8.10396634615384  26.6778846153846 7.2171875  25.4371394230769 7.2171875  L 22.5979567307692 7.2171875  C 22.4153846153846 5.48461538461538  21.7335336538462 3.87127403846154  20.6381009615385 2.60444711538461  C 19.2893028846154 1.04699519230769  17.4747596153846 0.190024038461538  15.5335336538462 0.190024038461538  C 13.5923076923077 0.190024038461538  11.7814903846154 1.04699519230769  10.4289663461538 2.60444711538461  C 9.32980769230769 3.87127403846154  8.65168269230769 5.48088942307692  8.46911057692308 7.2171875  L 5.62992788461538 7.2171875  C 4.38918269230769 7.2171875  3.34591346153846 8.10769230769231  3.1484375 9.32980769230769  L 0.156490384615384 27.9409855769231  C 0.0409855769230762 28.6675480769231  0.245913461538461 29.4090144230769  0.726562499999999 29.9679086538462  C 1.20348557692308 30.5305288461538  1.90024038461538 30.8509615384615  2.63798076923077 30.8509615384615  L 28.4290865384615 30.8509615384615  C 29.1668269230769 30.8509615384615  29.8635817307692 30.5305288461538  30.3405048076923 29.9679086538462  Z M 11.4759615384615 7.2171875  C 11.8448317307692 4.91454326923077  13.5252403846154 3.17079326923077  15.5335336538462 3.17079326923077  C 17.5418269230769 3.17079326923077  19.2222355769231 4.91454326923077  19.5911057692308 7.2171875  L 11.4759615384615 7.2171875  Z M 27.8813701923077 27.8701923076923  L 3.18942307692308 27.8701923076923  L 6.02860576923077 10.1979567307692  L 25.0384615384615 10.1979567307692  L 27.8813701923077 27.8701923076923  Z M 21.4391826923077 18.9837740384615  C 21.4391826923077 19.6283653846154  20.9063701923077 20.3176682692308  19.9860576923077 20.8765625  C 18.8347355769231 21.5733173076923  17.2139423076923 21.9719951923077  15.5335336538462 21.9719951923077  C 13.853125 21.9719951923077  12.2323317307692 21.5733173076923  11.0810096153846 20.8765625  C 10.1606971153846 20.3213942307692  9.62788461538461 19.6283653846154  9.62788461538461 18.9837740384615  L 6.64711538461538 18.9986778846154  C 6.65084134615385 19.9003605769231  6.94891826923077 20.7945913461538  7.50408653846154 21.5882211538462  C 7.99591346153846 22.2924278846154  8.68149038461539 22.9109375  9.53846153846154 23.4288461538462  C 11.1629807692308 24.4125  13.2942307692308 24.9527644230769  15.5335336538462 24.9527644230769  C 17.7728365384615 24.9527644230769  19.9003605769231 24.4125  21.5286057692308 23.4288461538462  C 22.3855769230769 22.9109375  23.0711538461538 22.2924278846154  23.5629807692308 21.5882211538462  C 24.1181490384615 20.7945913461538  24.4162259615385 19.9003605769231  24.4199519230769 18.9986778846154  L 21.4391826923077 18.9837740384615  Z " fill-rule="nonzero" fill="#fff" stroke="none" transform="matrix(1 0 0 1 38 161 )" />
  </g>
</svg>