<?xml version="1.0" encoding="utf-8"?>
<svg version="1.1" xmlns:xlink="http://www.w3.org/1999/xlink" width="31px" height="27px" xmlns="http://www.w3.org/2000/svg">
  <g transform="matrix(1 0 0 1 -129 -162 )">
    <path d="M 23.2279731637931 13.0962380955882  L 27 15.5692797352941  L 27 5.08829370220588  C 27.3891894827586 5.08829370220588  27.3891894827586 5.08829370220588  27.3891894827586 5.08829370220588  C 27.3891894827586 4.15916228785007  26.628764997228 3.40595245588235  25.690733856681 3.40595245588235  L 5.30926617672413 3.40595245588235  C 4.371235002772 3.40595245588235  3.61081051724138 4.15916228785007  3.61081051724138 5.08829370220588  C 3.61081051724138 5.08829370220588  3.61081051724138 5.08829370220588  4 5.08829370220588  L 4 21.6257082683824  L 17.97974521875 13.0962380955882  C 19.5946325875899 12.1352186582831  21.6130857949532 12.1352186582831  23.2279731637931 13.0962380955882  Z M 27.3891894827586 21.9117062977941  L 27.3891894827586 19.4891348713235  L 21.4615793006466 15.9730416397059  C 20.9360752926223 15.6725203080729  20.2886276491881 15.6725203080729  19.7631236411638 15.9730416397059  L 6.88882992133621 23.5940475441176  L 25.6907338232759 23.5940475441176  C 26.628764997228 23.5940475441177  27.3891894827586 22.8408377121499  27.3891894827586 21.9117062977941  Z M 0.213899265086205 5.08829370220588  C 0.213899265086205 2.30089944086431  2.49517273663408 0.041269930147058  5.30926617672414 0  L 25.6907338232759 0  C 25.6907338232759 0.0412699301470575  25.6907338232759 0.0412699301470575  25.6907338232759 0.0412699301470575  C 28.5048272633659 0.0412699301470575  30.7861007349138 2.30089944086431  30.7861007349138 5.08829370220588  L 30.7861007349138 21.9117062977941  C 30.7861007349138 24.6991005591357  28.5048272633659 26.9587300698529  25.6907338232759 27  L 5.30926617672414 27  C 2.49517273663408 26.9587300698529  0.213899265086205 24.6991005591357  0.213899265086205 21.9117062977941  L 0.213899265086205 5.08829370220588  Z M 12.1030887144397 9.29414686764706  C 12.1030887144397 10.6878439983178  10.9624519786657 11.8176587536765  9.55540525862069 11.8176587536765  C 8.14835853857566 11.8176587536765  7.00772180280172 10.6878439983178  7.00772180280172 9.29414686764706  C 7.00772180280172 7.90044973697627  8.14835853857566 6.77063498161764  9.55540525862069 6.77063498161764  C 10.9624519786657 6.77063498161764  12.1030887144397 7.90044973697627  12.1030887144397 9.29414686764706  Z " fill-rule="nonzero" fill="#868686" stroke="none" transform="matrix(1 0 0 1 129 162 )" />
  </g>
</svg>