<?xml version="1.0" encoding="utf-8"?>
<svg version="1.1" xmlns:xlink="http://www.w3.org/1999/xlink" width="31px" height="27px" xmlns="http://www.w3.org/2000/svg">
  <g transform="matrix(1 0 0 1 -38 -258 )">
    <path d="M 6.31481481481481 0  L 24.6851851851852 0  C 28.0670769932234 0  30.8086419872685 2.6862915062619  30.8086419872685 6.00000001171875  L 30.8086419872685 20.9999999882813  C 30.8086419872685 24.3137084937381  28.0670769932234 27  24.6851851851852 27  L 6.31481481481481 27  C 2.93292300677655 27  0.191358012731484 24.3137084937381  0.191358012731482 20.9999999882813  L 0.191358012731481 6.00000001171875  C 0.191358012731481 2.6862915062619  2.93292300677655 0  6.31481481481481 0  Z M 24.9148148148148 3.00750001171875  L 24.6851851851852 3  L 6.31481481481481 3  C 4.71257442505514 2.99950315729057  3.38090867745077 4.20948444496886  3.26074074074074 5.77500001171875  L 3.25308643171296 6.00000001171875  L 3.25308643171296 20.9999999882813  C 3.25257937645429 22.5699371318313  4.48745737815434 23.8747547747743  6.08518518518519 23.9924999882813  L 6.31481481481481 24  L 24.6851851851852 24  C 26.2874255749449 24.0004968427094  27.6190913225492 22.7905155550311  27.7392592592593 21.2249999882812  L 27.746913568287 20.9999999882813  L 27.746913568287 6.00000001171875  C 27.7474206235457 4.43006286816872  26.5125426218457 3.12524522522573  24.9148148148148 3.00750001171875  Z M 20.0925925925926 18  L 23.1543209756944 18  C 23.9997023990679 18.0001268127578  24.6849508204204 18.67166254137  24.6849508204204 19.4999999941406  C 24.6849508204204 20.3283374469112  23.9997023990679 20.9998731755234  23.1543209756944 20.9999999882813  L 20.0925925925926 20.9999999882813  C 19.2472111692191 20.9998731755234  18.5619627478666 20.3283374469112  18.5619627478666 19.4999999941406  C 18.5619627478666 18.67166254137  19.2472111692191 18.0001268127578  20.0925925925926 18  Z M 7.84567902430556 6  L 20.0925925925926 6  C 20.9379740159661 6.00012682447658  21.6232224373186 6.67166255308877  21.6232224373186 7.50000000585938  C 21.6232224373186 8.32833745862998  20.9379740159661 8.99987318724217  20.0925925925926 9  L 15 9  L 15 19.5000000117187  C 15.4998705779262 20.3283374547823  14.8145172417294 20.9997703837688  13.9691358084491 20.9997703837688  C 13.1237543751688 20.9997703837688  12.438401038972 20.3283374547823  13 19.5000000117187  L 13 9  L 7.84567902430556 9  C 6.99997170257729 9.00000001757812  6.31458045005006 8.32842713707765  6.31458045005006 7.50000000585938  C 6.31458045005006 6.6715728746411  6.99997170257729 5.99999999414063  7.8454446595408 5.99999999414063  Z " fill-rule="nonzero" fill="#fff" stroke="none" transform="matrix(1 0 0 1 38 258 )" />
  </g>
</svg>