<?xml version="1.0" encoding="utf-8"?>
<svg version="1.1" xmlns:xlink="http://www.w3.org/1999/xlink" width="31px" height="29px" xmlns="http://www.w3.org/2000/svg">
  <g transform="matrix(1 0 0 1 -129 -599 )">
    <path d="M 22.0830710345264 0.562323809523809  L 22.081963891689 0.561219047619048  L 22.3033924591664 0.693790476190476  L 28.9506780548396 4.92171428571429  C 30.2269497251745 5.73391689516136  30.9996644261649 7.13980762942664  31 8.65028571428571  L 31 24.2992380952381  C 30.9999998156145 24.2999746031174  31 24.3007111110765  31 24.3014476190477  C 31 26.7438506572803  29.0157740161472 28.7238095238096  26.5681072219388 28.7238095238096  L 13.2746426202733 28.7238095238095  C 12.030874147769 28.7254423295758  10.8439831202352 28.2040606251067  10.0052498214687 27.287619047619  L 2.29953567325335 24.8670857142857  C 0.930108871556304 24.4239555126792  0.00267238918134113 23.1509620114634  0.00267238918134113 21.7144255705771  C 0.00267238918134113 21.366931938536  0.0574387113659914 21.021600085943  0.164964282770703 20.6910857142857  L 4.89024991273955 6.1855619047619  C 5.24181058742346 5.10886959212541  6.1197779585729 4.28569666441296  7.21857129976497 4.00255238095238  L 15.0338925888817 2.2879619047619  L 17.5404639727264 0.693790476190475  C 18.9151322891413 -0.180561002144812  20.6599289595006 -0.231056807558441  22.0830710345264 0.562323809523809  Z M 18.7317496657551 2.57961904761905  L 18.7306425229177 2.57961904761905  L 12.0833569272446 6.80754285714286  C 11.4448438408926 7.21361883473825  11.0582416892464 7.91683809631235  11 8.67238095238095  L 11 24.3003428571429  C 11.058142659824 25.5222095238095  12.050142642123 26.5120761904762  13.2735354774359 26  L 26.5681066687822 26  C 26.5684757163656 26.5120763744192  26.5688447639901 26.5120764663908  26.5692138116196 26.5120764663908  C 27.7933529377763 26.5120764663908  28.7857137720689 25.5218497237499  28.7857137720689 24.3003431330574  L 28.7857137720689 8.67238095238095  C 28.7857137720689 7.91672380952381  28.3982137789833 7.21409523809524  27.7604995046483 6.80754285714286  L 21.1132139089751 2.57961904761905  C 20.386967144166 2.11739946882061  19.4579964305643 2.11739946882061  18.7317496657551 2.57961904761905  Z M 10.0207498211921 5.64754285714286  L 10.0196426783547 5.64754285714286  L 7.7721427184586 6.14137142857143  C 7.40575624179611 6.23576071291386  7.11305623043232 6.51033203275434  6.99603558945013 6.86940952380952  L 2.26964281664389 21.3738285714286  C 2.23382408645324 21.4839674825339  2.21558064617805 21.5990407326441  2.21558064617805 21.7148338626276  C 2.21558064617805 22.193808439877  2.52489007219337 22.618223142827  2.9815356610839 22.7658285714286  L 8.85714269909812 24.6616  C 8.84748017666605 24.541422983192  8.84267865619941 24.420906008773  9 24.3003428571429  L 9 8.65139047619047  C 8.84274984221208 7.52453333333333  9.27232126311834 6.45512380952381  10.0207498211921 5.64754285714286  Z M 20.9404996263427 20.9904761904762  C 20.9404996263427 19.1598857142857  22.4284995997912 17.6761904761905  24.2641424241793 17.6761904761905  C 26.0986956720481 17.6768005771583  27.5855707519402 19.1609726618556  27.5855707519402 20.991580768254  C 27.5855707519402 22.8226203679883  26.0980208699662 24.3069712444445  24.2630350969411 24.3069712444445  C 22.428049323916 24.3069712444445  20.9404994419419 22.8226203679882  20.9404994419419 20.991580768254  C 20.9404994419419 20.9912125756544  20.9404995034088 20.9908443830554  20.9404996263427 20.9904761904762  Z M 23.559999579601 12.4760761904762  L 15.7258568622487 20.2878476190476  L 23.559999579601 12.4760761904762  C 23.7671353989374 12.2736391888298  24.0455258763655 12.1602621185389  24.3354617611471 12.1602621185389  C 24.9475313242254 12.1602621185389  25.4437117413717 12.6553754898593  25.4437117413717 13.2661287852055  C 25.4437117413717 13.5074253976327  25.3646201404857 13.7421002030708  25.2184995500071 13.9343619047619  L 25.126606694504 14.0382095238095  L 17.2924639771517 21.849980952381  C 17.0853281578153 22.0524179540273  16.8069376803872 22.1657950243183  16.5170017956056 22.1657950243183  C 15.9049322325273 22.1657950243183  15.408751815381 21.6706816529978  15.408751815381 21.0599283576516  C 15.408751815381 20.8186317452245  15.487843416267 20.5839569397863  15.6339640067456 20.3916952380952  L 15.7258568622487 20.2878476190476  L 23.559999579601 12.4760761904762  Z M 24.2641424241793 19.8857142857143  C 23.6526843192059 19.8857142857143  23.156999586792 20.3803330382822  23.156999586792 20.9904761904762  C 23.156999586792 21.6006193426702  23.6526843192059 22.0952380952381  24.2641424241793 22.0952380952381  C 24.8756005291527 22.0952380952381  25.3712852615666 21.6006193426702  25.3712852615666 20.9904761904762  C 25.3712852615666 20.3803330382822  24.8756005291527 19.8857142857143  24.2641424241793 19.8857142857143  Z M 13.1860711932823 13.2571428571429  C 13.1860711932823 11.4265523809524  14.6740711667308 9.94285714285714  16.5097139911189 9.94285714285714  C 18.3442672389877 9.94346724382496  19.8311423188798 11.4276393285222  19.8311423188798 13.2582474349207  C 19.8311423188798 15.0892870346549  18.3435924369058 16.5736379111111  16.5086066638807 16.5736379111111  C 14.6736208908556 16.5736379111111  13.1860710088815 15.0892870346549  13.1860710088815 13.2582474349207  C 13.1860710088815 13.257879242321  13.1860710703484 13.2575110497221  13.1860711932823 13.2571428571429  Z M 16.5086068482815 12.152380952381  L 16.5097139911189 12.152380952381  C 15.8977022382946 12.1523808142857  15.4020174439201 12.6469996286809  15.4020174439201 13.2571428571429  C 15.4020174439201 13.867070378583  15.8973649151848 14.3615997981822  16.5086068482815 14.3619047619048  C 17.1200649532549 14.3619047619048  17.6157496856688 13.8672860093369  17.6157496856688 13.2571428571429  C 17.6157496856688 12.6469997049488  17.1200649532549 12.152380952381  16.5086068482815 12.152380952381  Z " fill-rule="nonzero" fill="#1890ff" stroke="none" transform="matrix(1 0 0 1 129 599 )" />
  </g>
</svg>