<?xml version="1.0" encoding="utf-8"?>
<svg version="1.1" xmlns:xlink="http://www.w3.org/1999/xlink" width="31px" height="31px" xmlns="http://www.w3.org/2000/svg">
  <g transform="matrix(1 0 0 1 -129 -256 )">
    <path d="M 31 28.3428571428571  C 30.9723214285714 28.3428571428571  22.1428571428571 19.4857142857143  22.1428571428571 19.4857142857143  L 20.73125 19.4857142857143  L 20.2330357142857 18.9875  C 21.9767857142857 16.9669642857143  23.0008928571429 14.3651785714286  23.0008928571429 11.5142857142857  C 23.0008928571429 5.14821428571429  17.8526785714286 0  11.4866071428571 0  C 5.12053571428571 0  0.0276785714285713 5.17589285714286  0.0276785714285713 11.5142857142857  C 0.0276785714285713 17.8526785714286  5.17589285714286 23.0285714285714  11.5419642857143 23.0285714285714  C 14.3928571428571 23.0285714285714  17.0223214285714 21.9767857142857  19.0151785714286 20.2607142857143  L 19.5133928571429 20.7589285714286  L 19.5133928571429 22.1428571428571  L 28.3705357142857 30.9723214285714  L 31 28.3428571428571  Z M 19.4857142857143 11.5142857142857  C 19.4857142857143 15.9151785714286  15.9151785714286 19.4857142857143  11.5142857142857 19.4857142857143  C 7.11339285714286 19.4857142857143  3.54285714285714 15.9151785714286  3.54285714285714 11.5142857142857  C 3.54285714285714 7.11339285714286  7.11339285714286 3.54285714285714  11.5142857142857 3.54285714285714  C 15.9151785714286 3.54285714285714  19.4857142857143 7.11339285714286  19.4857142857143 11.5142857142857  Z " fill-rule="nonzero" fill="#1890ff" stroke="none" transform="matrix(1 0 0 1 129 256 )" />
  </g>
</svg>