<?xml version="1.0" encoding="utf-8"?>
<svg version="1.1" xmlns:xlink="http://www.w3.org/1999/xlink" width="30px" height="26px" xmlns="http://www.w3.org/2000/svg">
  <g transform="matrix(1 0 0 1 -130 -66 )">
    <path d="M 29.9296875 1.746875  C 29.9330357142857 0.846354166666666  29.3370535714286 0.243749999999999  28.4464285714286 0.24375  L 10.5870535714286 0.24375  C 9.69308035714286 0.24375  9.10044642857143 0.846354166666667  9.10044642857143 1.746875  L 9.10044642857143 3.25  C 9.10044642857143 4.15390625  9.69642857142857 4.753125  10.5870535714286 5  L 28.4430803571429 5  C 29.3370535714286 4.753125  29.9296875 4.15052083333333  29.9296875 3.25  L 29.9296875 1.746875  Z M 4.63392857142857 1.746875  C 4.63727678571429 0.995312499999999  3.89397321428571 0.243749999999999  3.14732142857143 0.24375  L 1.66071428571429 0.24375  C 0.917410714285714 0.24375  0.174107142857142 0.995312499999999  0.174107142857142 1.746875  L 0.174107142857142 3.25  C 0.174107142857142 4.0015625  0.917410714285714 4.753125  1.66071428571429 4.753125  L 3.14732142857143 4.753125  C 3.890625 4.753125  4.63392857142857 4.0015625  4.63392857142857 3.25  L 4.63392857142857 1.746875  Z M 4.63392857142857 12.27890625  C 4.63727678571429 11.52734375  3.89397321428571 10.77578125  3.14732142857143 10.77578125  L 1.66071428571429 10.77578125  C 0.917410714285714 10.77578125  0.174107142857142 11.52734375  0.174107142857142 12.27890625  L 0.174107142857142 13.78203125  C 0.174107142857142 14.53359375  0.917410714285714 15.28515625  1.66071428571429 15.28515625  L 3.14732142857143 15.28515625  C 3.890625 15.28515625  4.63392857142857 14.53359375  4.63392857142857 13.78203125  L 4.63392857142857 12.27890625  Z M 29.9296875 12.27890625  C 29.9330357142857 11.3783854166667  29.3370535714286 10.77578125  28.4464285714286 11  L 10.5870535714286 11  C 9.69308035714286 10.77578125  9.10044642857143 11.3783854166667  9.10044642857143 12.27890625  L 9.10044642857143 13.78203125  C 9.10044642857143 14.6859375  9.69642857142857 15.28515625  10.5870535714286 15  L 28.4430803571429 15  C 29.3370535714286 15.28515625  29.9296875 14.6825520833333  29.9296875 13.78203125  L 29.9296875 12.27890625  Z M 4.63392857142857 22.8109375  C 4.63727678571429 22.059375  3.89397321428571 21.3078125  3.14732142857143 21.3078125  L 1.66071428571429 21.3078125  C 0.917410714285714 21.3078125  0.174107142857142 22.059375  0.174107142857142 22.8109375  L 0.174107142857142 24.3140625  C 0.174107142857142 25.065625  0.917410714285714 25.8171875  1.66071428571429 25.8171875  L 3.14732142857143 25.8171875  C 3.890625 25.8171875  4.63392857142857 25.065625  4.63392857142857 24.3140625  L 4.63392857142857 22.8109375  Z M 29.9296875 22.8109375  C 29.9330357142857 21.9104166666667  29.3370535714286 21.3078125  28.4464285714286 21  L 10.5870535714286 21  C 9.69308035714286 21.3078125  9.10044642857143 21.9104166666667  9.10044642857143 22.8109375  L 9.10044642857143 24.3140625  C 9.10044642857143 25.21796875  9.69642857142857 25.8171875  10.5870535714286 25.8171875  L 28.4430803571429 25.8171875  C 29.3370535714286 25.8171875  29.9296875 25.2145833333333  29.9296875 24.3140625  L 29.9296875 22.8109375  Z " fill-rule="nonzero" fill="#1890ff" stroke="none" transform="matrix(1 0 0 1 130 66 )" />
  </g>
</svg>