<?xml version="1.0" encoding="utf-8"?>
<svg version="1.1" xmlns:xlink="http://www.w3.org/1999/xlink" width="31px" height="30px" xmlns="http://www.w3.org/2000/svg">
  <g transform="matrix(1 0 0 1 -38 -694 )">
    <path d="M 30.7787464721154 5.93861434710744  C 30.7787769951923 7.27325025810553  30.3270060067308 8.49815752828989  29.5760674913462 9.47128856452638  C 28.0651313067308 5.87247742657343  25.2375896509615 2.98721454545454  21.7107806076923 1.44583045899555  C 22.6645295288462 0.679322731087094  23.8647988259615 0.218518764144945  25.1729855913462 0.218518764144945  C 28.2688873019231 0.218518764144945  30.7787464721154 2.77943588048315  30.7787464721154 5.93861434710744  Z M 15.5104974346154 1.67887103877941  C 23.1526288807692 1.67887106929434  29.3474520298077 8.00022572917991  29.3474520298077 15.7977643026065  C 29.3474520298077 19.5484593108709  27.9046276740385 22.9480477457088  25.5661309596154 25.4765833541004  L 27.5015079961538 27.451261151939  C 27.7574841173077 27.7125613731723  27.9160355548077 28.0735041932613  27.9160355548077 28.4724179427845  C 27.9160355548077 29.2699956770502  27.2823787730769 29.9166263191354  26.5005413653846 29.9166263191354  C 26.1098666673077 29.9166263191354  25.7560083740385 29.7548749853783  25.5000627759615 29.493574764145  L 23.4209889355769 27.3723839694851  C 21.1779647096154 28.9713177978385  18.4543142480769 29.9166263191354  15.5105279875 29.9166263191354  C 12.5723846509615 29.9166263191354  9.85346207692308 28.9753459529561  7.6129695375 27.3823138664971  L 5.54856734134616 29.4887346980293  C 5.2893579798077 29.7533761220598  4.93153436923077 29.9166263191354  4.53637581923077 29.9166263191354  C 3.7458757298077 29.9166263191354  3.1049898673077 29.2626575359186  3.1049898673077 28.4559305683408  C 3.1049898673077 28.052676373808  3.26524946442308 27.6876117177368  3.52421479038462 27.4232513363001  L 5.44391360673077 25.4646549726637  C 3.1124019375 22.9371185759695  1.67354289903847 19.5426200025429  1.67354289903847 15.7977643026065  C 1.67354289903847 8.00022572917992  7.86857959038462 1.67887103877941  15.5104974346154 1.67887103877941  Z M 26.4846191096154 15.7977643026065  C 26.4846191394231 9.6136796948506  21.5711406307692 4.59995031150667  15.5105279875 4.59995031150667  C 9.44964084519231 4.59995031150667  4.53640634230769 9.61371091163382  4.53640634230769 15.7977643026065  C 4.53640634230769 21.9820362720915  9.44967133846154 26.9955782937063  15.5105279875 26.9955782937063  C 21.5711406009615 26.9955782937063  26.4846191096154 21.9820050553083  26.4846191096154 15.7977643026065  Z M 22.6675492567308 15.7977643331214  C 22.6675492567308 16.6044913006993  22.0263888951923 17.2583039389701  21.2361633048077 17.2583039389701  L 15.5105279875 17.2583039389701  C 14.7200278980769 17.2583039389701  14.0791115423077 16.6044913006993  14.0791115423077 15.7977955193897  L 14.0791115423077 8.00815717228226  C 14.0791115423077 7.20149263827082  14.7200583913462 6.54761753591863  15.5105279875 6.54761753591863  C 16.3007230548077 6.54761753591863  16.9418834461538 7.20149263827082  16.9418834461538 8.00815717228226  L 16.9418834461538 14.337255913541  L 21.2361633048077 14.337255913541  C 22.0263888951923 14.337255913541  22.6675492567308 14.9910373350286  22.6675492567308 15.7977643331214  Z M 9.50405714230769 1.47202921296885  C 5.90196814615385 3.0465754100445  3.0135437125 5.99350989955499  1.47054950384615 9.66913730197076  C 0.703414233653846 8.67524091036236  0.242157006730769 7.42407245263827  0.242157006730769 6.06070852638271  C 0.2421875 2.83411285441831  2.80551737788462 0.218518794659885  5.96779232403846 0.218518794659885  C 7.30376677403846 0.218518794659885  8.53014611923077 0.689221441830895  9.50405714230769 1.47202921296885  Z " fill-rule="nonzero" fill="#868686" stroke="none" transform="matrix(1 0 0 1 38 694 )" />
  </g>
</svg>