<?xml version="1.0" standalone="no"?><!DOCTYPE svg PUBLIC "-//W3C//DTD SVG 1.1//EN" "http://www.w3.org/Graphics/SVG/1.1/DTD/svg11.dtd"><svg t="1749220310281" class="icon" viewBox="0 0 1024 1024" version="1.1" xmlns="http://www.w3.org/2000/svg" p-id="5232" xmlns:xlink="http://www.w3.org/1999/xlink" width="200" height="200"><path d="M383.706591 991.446838a31.963123 31.963123 0 1 1-63.926246 0V32.553162a31.963123 31.963123 0 0 1 63.926246 0v958.893676z" fill="#333333" p-id="5233"></path><path d="M376.291146 970.99044a31.963123 31.963123 0 1 1-49.095356 40.912797L6.925302 627.706504a31.963123 31.963123 0 0 1 49.095356-40.912797l320.270488 384.196733z" fill="#333333" p-id="5234"></path><path d="M639.411571 32.553162a31.963123 31.963123 0 1 1 63.926245 0v958.893676a31.963123 31.963123 0 0 1-63.926245 0V32.553162z" fill="#333333" p-id="5235"></path><path d="M646.827015 53.00956a31.963123 31.963123 0 1 1 49.095357-40.912797l320.270488 384.196733a31.963123 31.963123 0 0 1-49.095357 40.912797L646.827015 53.00956z" fill="#333333" p-id="5236"></path></svg>