<?xml version="1.0" encoding="utf-8"?>
<svg version="1.1" xmlns:xlink="http://www.w3.org/1999/xlink" width="31px" height="24px" xmlns="http://www.w3.org/2000/svg">
  <g transform="matrix(1 0 0 1 -130 -357 )">
    <path d="M 28.5515486725664 18.2258426966292  C 29.7551991150443 18.2258426966292  30.7325221238938 17.2685393258427  30.7325221238938 16.0921348314607  C 30.7325221238938 16.038202247191  30.729092920354 15.9842696629213  30.7256637168142 15.9303370786517  L 30.7256637168142 8.30224719101125  C 30.729092920354 8.24831460674159  30.7325221238938 8.19438202247193  30.7325221238938 8.14044943820227  C 30.7325221238938 6.96067415730334  29.7551991150443 6.00674157303371  28.5515486725664 6.00674157303371  C 28.1503318584071 6.00674157303371  27.7731194690265 6.11460674157303  27.4473451327433 6.30000000000001  L 26.35 6.90337078651686  L 26.35 4.72247191011235  C 26.3465707964602 2.25842696629212  24.295907079646 0.239325842696644  21.7857300884956 0.239325842696644  L 4.57455752212391 0.239325842696644  C 2.06780973451327 0.239325842696644  0.0137168141592952 2.25505617977529  0.0137168141592952 4.72247191011235  L 0.0137168141592952 10.3112359550562  C 0.0137168141592952 10.9078651685393  0.514380530973451 11.3932584269663  1.12477876106194 11.3932584269663  C 1.73517699115046 11.3932584269663  2.22898230088496 10.9078651685393  2.22898230088496 10.3112359550562  L 2.23584070796461 4.55056179775283  C 2.23584070796461 3.3640449438202  3.22345132743363 2.39325842696627  4.43053097345134 2.39325842696627  L 21.9263274336283 2.39325842696627  C 23.133407079646 2.39325842696627  24.121017699115 3.3640449438202  23.7666666666667 4.55056179775283  L 23.7666666666667 19.6820224719101  C 24.121017699115 20.8685393258427  23.133407079646 21.8393258426966  21.9263274336283 21.8393258426966  L 4.43396017699116 21.8393258426966  C 3.22688053097345 21.8393258426966  2.23926991150443 20.8685393258427  2.23926991150443 19.6820224719101  L 2.23926991150443 18.9606741573033  C 2.23926991150443 18.3640449438202  1.7454646017699 17.8786516853933  1.13506637168141 17.8786516853933  C 0.524668141592922 17.8786516853933  0.0308628318584141 18.3640449438202  0.0308628318584141 18.9606741573033  L 0.0171460176991189 19.476404494382  C 0.0171460176991189 21.9438202247191  2.0712389380531 23.9595505617978  4.57798672566373 24  L 21.7891592920354 24  C 24.2993362831858 23.9595505617978  26.35 21.9438202247191  26.35 19.476404494382  L 26.35 17.3157303370787  L 27.4850663716814 17.9595505617978  C 27.8005530973451 18.1314606741573  28.1674778761062 18.2258426966292  28.5515486725664 18.2258426966292  Z M 11.0210344827586 8.28750000000002  C 10.867816091954 8.13125000000002  10.6397701149425 8.03437500000001  10.3903448275862 8.03437500000001  C 9.9235632183908 8.03437500000001  9.54942528735632 8.36874999999998  9.54942528735632 8.77812499999999  L 9.55298850574713 15.06875  C 9.55298850574713 15.48125  9.92712643678161 15.890625  10.3903448275862 15.890625  C 10.5471264367816 15.890625  10.6932183908046 15.853125  10.8214942528736 15.7875  L 16.9395402298851 12.6625  C 17.2245977011494 12.55  17.4241379310345 12.290625  17.4241379310345 11.990625  C 17.4241379310345 11.715625  17.2531034482759 11.471875  17.0001149425288 11.34375  L 11.0210344827586 8.28750000000002  Z M 0.944351851851854 15.8444444444444  C 1.45480614563064 15.8444444444444  1.86861111111111 15.4452316797102  1.86861111111111 14.9527777777778  C 1.86861111111111 14.4603238758453  1.45480614563064 14.0611110923206  0.944351851851854 14.0611110923206  C 0.433897558073043 14.0611110923206  0.0200925925925939 14.4603238570548  0.0200925925925939 14.9527777589873  C 0.0200925925925939 15.4452316609197  0.433897558073043 15.8444444444444  0.944351851851854 15.8444444444444  Z M 27.7525442477876 8.59213483146067  C 27.8314159292035 8.54157303370789  27.9274336283186 8.51460674157306  28.0303097345133 8.51460674157306  C 28.3149336283186 8.51460674157306  28.5446902654867 8.73707865168541  28.5446902654867 9.00674157303371  L 28.5446902654867 15.2157303370786  C 28.5344026548673 15.4786516853932  28.3080752212389 15.691011235955  28.0303097345133 15.691011235955  C 27.9377212389381 15.691011235955  27.8485619469026 15.6674157303371  27.7731194690265 15.623595505618  L 26.35 14.8247191011236  L 26.35 9.37415730337079  L 27.7525442477876 8.59213483146067  Z " fill-rule="nonzero" fill="#fff" stroke="none" transform="matrix(1 0 0 1 130 357 )" />
  </g>
</svg>