<?xml version="1.0" encoding="utf-8"?>
<svg version="1.1" xmlns:xlink="http://www.w3.org/1999/xlink" width="28px" height="25px" xmlns="http://www.w3.org/2000/svg">
  <g transform="matrix(1 0 0 1 -40 -355 )">
    <path d="M 1.93846153846154 0.0555555555555563  C 1.93846153846154 0.0555555555555563  1.93846153846154 0.0555555555555563  1.93846153846154 0  L 26.0615384615385 0  C 26.0615384615385 0.0555555555555563  26.0615384615385 0.0555555555555563  26.0615384615385 0.0555555555555563  C 27.0131675689392 0.0555555555555563  27.7846153846154 0.851493778078591  27.7846153846154 1.83333333333333  C 27.7846153846154 2.81517288858808  27.0131675689392 3.61111111111111  26.0615384615385 3.61111111111111  C 26.0615384615385 3.61111111111111  26.0615384615385 3.61111111111111  26.0615384615385 4  L 1.93846153846154 4  C 1.93846153846154 3.61111111111111  1.93846153846154 3.61111111111111  1.93846153846154 3.61111111111111  C 0.986832431060787 3.61111111111111  0.215384615384616 2.81517288858808  0.215384615384616 1.83333333333333  C 0.215384615384616 0.851493778078591  0.986832431060787 0.0555555555555563  1.93846153846154 0.0555555555555563  Z M 1.93846153846154 21.3888888888889  C 1.93846153846154 21.3888888888889  1.93846153846154 21.3888888888889  1.93846153846154 21  L 26.0615384615385 21  C 26.0615384615385 21.3888888888889  26.0615384615385 21.3888888888889  26.0615384615385 21.3888888888889  C 27.0131675689392 21.3888888888889  27.7846153846154 22.1848271114119  27.7846153846154 23.1666666666667  C 27.7846153846154 24.1485062219214  27.0131675689392 24.9444444444444  26.0615384615385 24.9444444444444  C 26.0615384615385 24.9444444444444  26.0615384615385 24.9444444444444  26.0615384615385 25  L 1.93846153846154 25  C 1.93846153846154 24.9444444444444  1.93846153846154 24.9444444444444  1.93846153846154 24.9444444444444  C 0.986832431060787 24.9444444444444  0.215384615384616 24.1485062219214  0.215384615384616 23.1666666666667  C 0.215384615384616 22.1848271114119  0.986832431060787 21.3888888888889  1.93846153846154 21.3888888888889  Z M 1.93846153846154 10.7222222222222  L 6.36849230769231 10.7222222222222  C 7.32012141509306 10.7222222222222  8.09156923076923 11.5181604447453  8.09156923076923 12.5  C 8.09156923076923 13.4818395552547  7.32012141509306 14.2777777777778  6.36849230769231 14.2777777777778  L 1.93846153846154 14.2777777777778  C 0.98683250368305 14.2777777777778  0.215384688006878 13.4818395552547  0.215384688006878 12.5  C 0.215384688006878 11.5181604447453  0.98683250368305 10.7222222222222  1.9384616110838 10.7222222222222  Z M 11.7841230769231 10.7222222222222  L 16.2158769230769 10.7222222222222  C 17.1675060304777 10.7222222222222  17.9389538461538 11.5181604447453  17.9389538461538 12.5  C 17.9389538461538 13.4818395552547  17.1675060304777 14.2777777777778  16.2158769230769 14.2777777777778  L 11.7841230769231 14.2777777777778  C 10.8324940421446 14.2777777777778  10.0610462264684 13.4818395552547  10.0610462264684 12.5  C 10.0610462264684 11.5181604447453  10.8324940421446 10.7222222222222  11.7841231495453 10.7222222222222  Z M 21.6315076923077 10.7222222222222  L 26.0615384615385 10.7222222222222  C 27.0131675689392 10.7222222222222  27.7846153846154 11.5181604447453  27.7846153846154 12.5  C 27.7846153846154 13.4818395552547  27.0131675689392 14.2777777777778  26.0615384615385 14.2777777777778  L 21.6315076923077 14.2777777777778  C 20.6798786575292 14.2777777777778  19.908430841853 13.4818395552547  19.908430841853 12.5  C 19.908430841853 11.5181604447453  20.6798786575292 10.7222222222222  21.6315077649299 10.7222222222222  Z " fill-rule="nonzero" fill="#fff" stroke="none" transform="matrix(1 0 0 1 40 355 )" />
  </g>
</svg>