<?xml version="1.0" encoding="utf-8"?>
<svg version="1.1" xmlns:xlink="http://www.w3.org/1999/xlink" width="17px" height="15px" xmlns="http://www.w3.org/2000/svg">
  <g>
    <path d="M 6.16139322916667 8.66242439516129  L 15.8116970486111 8.66242439516129  C 16.2805989583333 8.66242439516129  16.6587456597222 9.08089717741936  16.6587456597222 9.59236391129032  C 16.6587456597222 10.1038306451613  16.2805989583333 10.5223034274194  15.8116970486111 10.5223034274194  L 6.16139322916667 10.5223034274194  C 5.69249131944444 10.5223034274194  5.31434461805556 10.1038306451613  5.31434461805556 9.59236391129032  C 5.31434461805556 9.08089717741936  5.69249131944444 8.66242439516129  6.16139322916667 8.66242439516129  Z M 6.16139322916667 4.32270665322581  L 15.8116970486111 4.32270665322581  C 16.2805989583333 4.32270665322581  16.6587456597222 4.74117943548387  16.6587456597222 5.25264616935484  C 16.6587456597222 5.76411290322581  16.2805989583333 6.18258568548387  15.8116970486111 6.18258568548387  L 6.16139322916667 6.18258568548387  C 5.69249131944444 6.18258568548387  5.31434461805556 5.76411290322581  5.31434461805556 5.25264616935484  C 5.31434461805556 4.74117943548387  5.69249131944444 4.32270665322581  6.16139322916667 4.32270665322581  Z M 0.927842881944445 0.137978830645162  L 15.7511935763889 0.137978830645162  C 16.2503472222222 0.137978830645162  16.6587456597222 0.556451612903226  16.6587456597222 1.06791834677419  C 16.6587456597222 1.57938508064516  16.2503472222222 1.99785786290323  15.7511935763889 2  L 0.927842881944445 2  C 0.428689236111111 1.99785786290323  0.0202907986111107 1.57938508064516  0.0202907986111107 1.06791834677419  C 0.0202907986111107 0.556451612903226  0.428689236111111 0.137978830645162  0.927842881944445 0.137978830645162  Z M 15.7511935763889 14.70703125  L 0.927842881944445 14.70703125  C 0.428689236111111 14.70703125  0.0202907986111107 14.2885584677419  0.0202907986111107 13.777091733871  C 0.0202907986111107 13.265625  0.428689236111111 12.8471522177419  0.927842881944445 12.8471522177419  L 15.7511935763889 12.8471522177419  C 16.2503472222222 12.8471522177419  16.6587456597222 13.265625  16.6587456597222 13.777091733871  C 16.6587456597222 14.2885584677419  16.2503472222222 14.70703125  15.7511935763889 14.70703125  Z M 0.744466145833336 10.5223034274194  L 4.97970920138889 7.42250504032258  L 0.744466145833336 4.32270665322581  L 0.744466145833336 10.5223034274194  Z " fill-rule="nonzero" fill="#1890ff" stroke="none" />
  </g>
</svg>