<?xml version="1.0" encoding="utf-8"?>
<svg version="1.1" xmlns:xlink="http://www.w3.org/1999/xlink" width="12px" height="18px" xmlns="http://www.w3.org/2000/svg">
  <g transform="matrix(1 0 0 1 -13 -10 )">
    <path d="M 11.5260416666667 3.54073660714286  C 11.8420138888889 4.25390625  12 5.00223214285714  12 5.78571428571428  C 12 7.265625  11.4878472222222 8.55301339285714  10.4635416666667 9.64787946428572  C 9.43923611111111 10.7427455357143  8.17361111111111 11.3705357142857  6.66666666666667 11.53125  L 6.66666666666667 17.6785714285714  C 6.66666666666667 17.7723214285714  6.63541666666667 17.8493303571429  6.57291666666667 17.9095982142857  C 6.51041666666667 17.9698660714286  6.43055555555556 18  6.33333333333333 18  L 5.66666666666667 18  C 5.56944444444445 18  5.48958333333333 17.9698660714286  5.42708333333333 17.9095982142857  C 5.36458333333333 17.8493303571429  5.33333333333333 17.7723214285714  5.33333333333333 17.6785714285714  L 5.33333333333333 11.53125  C 3.82638888888889 11.3705357142857  2.56076388888889 10.7427455357143  1.53645833333333 9.64787946428572  C 0.512152777777778 8.55301339285714  0 7.265625  0 5.78571428571428  C 0 5.00223214285714  0.157986111111111 4.25390625  0.473958333333333 3.54073660714286  C 0.789930555555556 2.82756696428571  1.21701388888889 2.21149553571428  1.75520833333333 1.69252232142857  C 2.29340277777778 1.17354910714286  2.93229166666667 0.761718749999999  3.671875 0.45703125  C 4.41145833333333 0.152343750000001  5.1875 0  6 0  C 6.8125 0  7.58854166666667 0.152343750000001  8.328125 0.45703125  C 9.06770833333333 0.761718749999999  9.70659722222222 1.17354910714286  10.2447916666667 1.69252232142857  C 10.7829861111111 2.21149553571428  11.2100694444444 2.82756696428571  11.5260416666667 3.54073660714286  Z M 2.703125 8.96484375  C 3.61631944444444 9.84542410714286  4.71527777777778 10.2857142857143  6 10.2857142857143  C 7.28472222222222 10.2857142857143  8.38368055555556 9.84542410714286  9.296875 8.96484375  C 10.2100694444444 8.08426339285714  10.6666666666667 7.02455357142857  10.6666666666667 5.78571428571428  C 10.6666666666667 4.546875  10.2100694444444 3.48716517857143  9.296875 2.60658482142857  C 8.38368055555556 1.72600446428571  7.28472222222222 1.28571428571429  6 1.28571428571429  C 4.71527777777778 1.28571428571429  3.61631944444444 1.72600446428571  2.703125 2.60658482142857  C 1.78993055555556 3.48716517857143  1.33333333333333 4.546875  1.33333333333333 5.78571428571428  C 1.33333333333333 7.02455357142857  1.78993055555556 8.08426339285714  2.703125 8.96484375  Z " fill-rule="nonzero" fill="#999999" stroke="none" transform="matrix(1 0 0 1 13 10 )" />
  </g>
</svg>